<?xml version="1.0" encoding="UTF-8" standalone="no"?>
<svg
   version="1.1"
   x="0px"
   y="0px"
   viewBox="0 0 100 100"
   enable-background="new 0 0 100 100"
   xml:space="preserve"
   id="svg15"
   sodipodi:docname="logo_no_border.svg"
   width="1000"
   height="1000"
   inkscape:export-filename="logo-nb-750.png"
   inkscape:export-xdpi="1111.11"
   inkscape:export-ydpi="1111.11"
   inkscape:version="1.4 (e7c3feb100, 2024-10-09)"
   xmlns:inkscape="http://www.inkscape.org/namespaces/inkscape"
   xmlns:sodipodi="http://sodipodi.sourceforge.net/DTD/sodipodi-0.dtd"
   xmlns="http://www.w3.org/2000/svg"
   xmlns:svg="http://www.w3.org/2000/svg"><defs
     id="defs15" /><sodipodi:namedview
     id="namedview15"
     pagecolor="#ffffff"
     bordercolor="#000000"
     borderopacity="0.25"
     inkscape:showpageshadow="2"
     inkscape:pageopacity="0.0"
     inkscape:pagecheckerboard="0"
     inkscape:deskcolor="#d1d1d1"
     inkscape:zoom="1.4796209"
     inkscape:cx="390.97852"
     inkscape:cy="465.65981"
     inkscape:window-width="3840"
     inkscape:window-height="2123"
     inkscape:window-x="0"
     inkscape:window-y="0"
     inkscape:window-maximized="1"
     inkscape:current-layer="svg15" /><path
     d="m 0,94.54 c 0,0 1.1122222,3.02667 5.245556,5.46 C 12.637778,91.484444 57.268889,19.765556 100,2.1388889 V 0 C 100,0 53.337778,15.833333 0,94.54 Z"
     fill="#26130f"
     id="path1"
     style="fill:#000000;fill-opacity:1;stroke-width:1.11111"
     inkscape:label="path1" /><path
     d="m 14.82,88.658889 c 0,0 14.194444,-8.705556 30.578889,0.177778 C 36.92,98.19222 21.678889,91.768889 14.82,88.658889 Z"
     fill="#385928"
     id="path2"
     style="fill:#306550;fill-opacity:1;stroke-width:1.11111" /><path
     d="m 40.777778,55.924444 c 0,0 11.677778,-7.162222 25.157778,0.146667 -6.976667,7.696667 -19.514445,2.412222 -25.157778,-0.146667 z"
     fill="#385928"
     id="path3"
     style="fill:#306550;fill-opacity:1;stroke-width:1.11111" /><path
     d="m 27.834444,73.096667 c 0,0 12.755556,-7.823334 27.478889,0.16 -7.618889,8.406666 -21.314444,2.635555 -27.478889,-0.16 z"
     fill="#385928"
     id="path4"
     style="fill:#306550;fill-opacity:1;stroke-width:1.11111" /><path
     d="m 52.607778,40.943333 c 0,0 10.107778,-6.198889 21.774444,0.126667 -6.037778,6.661111 -16.891111,2.086667 -21.774444,-0.126667 z"
     fill="#385928"
     id="path5"
     style="fill:#306550;fill-opacity:1;stroke-width:1.11111" /><path
     d="m 64.606667,30.954444 c 0,0 8.66,-5.311111 18.654444,0.108889 -5.173333,5.706667 -14.47,1.788889 -18.654444,-0.108889 z"
     fill="#385928"
     id="path6"
     style="fill:#306550;fill-opacity:1;stroke-width:1.11111" /><path
     d="m 74.401111,21.102222 c 0,0 6.952222,-4.264444 14.975556,0.08667 C 85.224444,25.77 77.758889,22.624444 74.401111,21.102222 Z"
     fill="#385928"
     id="path7"
     style="fill:#306550;fill-opacity:1;stroke-width:1.11111" /><path
     d="m 83.433333,13.078889 c 0,0 5.498889,-3.372222 11.845557,0.06889 C 91.993333,16.77 86.09,14.282222 83.433333,13.078889 Z"
     fill="#385928"
     id="path8"
     style="fill:#306550;fill-opacity:1;stroke-width:1.11111" /><path
     d="m 5.651111,80.838889 c 0,0 8.253333,-14.462222 -1.1422221,-30.556667 -9.0833333,8.768889 -2.1811111,23.798889 1.1422221,30.556667 z"
     fill="#385928"
     id="path9"
     style="fill:#306550;fill-opacity:1;stroke-width:1.11111" /><path
     d="m 16.731111,65.407778 c 0,0 7.917778,-11.267778 1.43,-25.247778 -8.16,6.516667 -3.642222,19.425556 -1.43,25.247778 z"
     fill="#385928"
     id="path10"
     style="fill:#306550;fill-opacity:1;stroke-width:1.11111" /><path
     d="m 29.875556,50.438889 c 0,0 8.9,-10.508889 3.697777,-25.016667 C 24.861111,31.176667 28.196667,44.44 29.875556,50.438889 Z"
     fill="#385928"
     id="path11"
     style="fill:#306550;fill-opacity:1;stroke-width:1.11111" /><path
     d="m 45.012222,35.908889 c 0,0 6.645556,-9.316667 1.338889,-20.973333 -6.818889,5.365555 -3.142222,16.121111 -1.338889,20.973333 z"
     fill="#385928"
     id="path12"
     style="fill:#306550;fill-opacity:1;stroke-width:1.11111" /><path
     d="m 57.206667,25.205556 c 0,0 7.956666,-8.224445 4.442222,-20.5411116 -7.54,4.2933336 -5.503333,15.4744446 -4.442222,20.5411116 z"
     fill="#385928"
     id="path13"
     style="fill:#306550;fill-opacity:1;stroke-width:1.11111" /><path
     d="m 70.707778,15.808889 c 0,0 5.35,-5.837778 2.69,-14.2911112 -5.135556,3.11 -3.517778,10.8066662 -2.69,14.2911112 z"
     fill="#385928"
     id="path14"
     style="fill:#306550;fill-opacity:1;stroke-width:1.11111" /><path
     d="m 79.171111,9.678889 c 0,0 5.177778,-2.965556 5.202222,-9.6455557 -4.398889,1.0588889 -5,6.9544447 -5.202222,9.6455557 z"
     fill="#385928"
     id="path15"
     style="fill:#306550;fill-opacity:1;stroke-width:1.11111" /></svg>
