<?xml version="1.0" encoding="UTF-8" standalone="no"?>
<svg
   version="1.1"
   x="0px"
   y="0px"
   viewBox="0 0 100 100"
   enable-background="new 0 0 100 100"
   xml:space="preserve"
   id="svg15"
   sodipodi:docname="logo_with_lettering.svg"
   width="1000"
   height="1000"
   inkscape:export-filename="logo-nb-750.png"
   inkscape:export-xdpi="1111.11"
   inkscape:export-ydpi="1111.11"
   inkscape:version="1.4 (e7c3feb100, 2024-10-09)"
   xmlns:inkscape="http://www.inkscape.org/namespaces/inkscape"
   xmlns:sodipodi="http://sodipodi.sourceforge.net/DTD/sodipodi-0.dtd"
   xmlns="http://www.w3.org/2000/svg"
   xmlns:svg="http://www.w3.org/2000/svg"><defs
     id="defs15"><rect
       x="483.90774"
       y="480.52849"
       width="559.60281"
       height="229.11274"
       id="rect1" /></defs><sodipodi:namedview
     id="namedview15"
     pagecolor="#ffffff"
     bordercolor="#000000"
     borderopacity="0.25"
     inkscape:showpageshadow="2"
     inkscape:pageopacity="0.0"
     inkscape:pagecheckerboard="0"
     inkscape:deskcolor="#d1d1d1"
     inkscape:zoom="1.4796209"
     inkscape:cx="390.97853"
     inkscape:cy="465.65982"
     inkscape:window-width="3840"
     inkscape:window-height="2123"
     inkscape:window-x="0"
     inkscape:window-y="0"
     inkscape:window-maximized="1"
     inkscape:current-layer="svg15" /><path
     d="M 5,90.086 C 5,90.086 6.001,92.81 9.721,95 16.374,87.336 56.542,22.789 95,6.925 V 5 C 95,5 53.004,19.25 5,90.086 Z"
     fill="#26130f"
     id="path1"
     style="fill:#000000;fill-opacity:1"
     inkscape:label="path1" /><path
     d="m 18.338,84.793 c 0,0 12.775,-7.835 27.521,0.16 -7.631,8.42 -21.348,2.639 -27.521,-0.16 z"
     fill="#385928"
     id="path2"
     style="fill:#306550;fill-opacity:1" /><path
     d="m 30.051,70.787 c 0,0 11.48,-7.041 24.731,0.144 -6.857,7.566 -19.183,2.372 -24.731,-0.144 z"
     fill="#385928"
     id="path4"
     style="fill:#306550;fill-opacity:1" /><path
     d="m 52.347,41.849 c 0,0 9.097,-5.579 19.597,0.114 -5.434,5.995 -15.202,1.878 -19.597,-0.114 z"
     fill="#385928"
     id="path5"
     style="fill:#306550;fill-opacity:1" /><path
     d="m 63.146,32.859 c 0,0 7.794,-4.78 16.789,0.098 -4.656,5.136 -13.023,1.61 -16.789,-0.098 z"
     fill="#385928"
     id="path6"
     style="fill:#306550;fill-opacity:1" /><path
     d="m 71.961,23.992 c 0,0 6.257,-3.838 13.478,0.078 -3.737,4.123 -10.456,1.292 -13.478,-0.078 z"
     fill="#385928"
     id="path7"
     style="fill:#306550;fill-opacity:1" /><path
     d="m 80.09,16.771 c 0,0 4.949,-3.035 10.661,0.062 -2.957,3.26 -8.27,1.021 -10.661,-0.062 z"
     fill="#385928"
     id="path8"
     style="fill:#306550;fill-opacity:1" /><path
     d="m 10.086,77.755 c 0,0 7.428,-13.016 -1.028,-27.501 -8.175,7.892 -1.963,21.419 1.028,27.501 z"
     fill="#385928"
     id="path9"
     style="fill:#306550;fill-opacity:1" /><path
     d="m 20.058,63.867 c 0,0 7.126,-10.141 1.287,-22.723 -7.344,5.865 -3.278,17.483 -1.287,22.723 z"
     fill="#385928"
     id="path10"
     style="fill:#306550;fill-opacity:1" /><path
     d="m 31.888,50.395 c 0,0 8.01,-9.458 3.328,-22.515 -7.841,5.179 -4.839,17.116 -3.328,22.515 z"
     fill="#385928"
     id="path11"
     style="fill:#306550;fill-opacity:1" /><path
     d="m 45.511,37.318 c 0,0 5.981,-8.385 1.205,-18.876 -6.137,4.829 -2.828,14.509 -1.205,18.876 z"
     fill="#385928"
     id="path12"
     style="fill:#306550;fill-opacity:1" /><path
     d="m 56.486,27.685 c 0,0 7.161,-7.402 3.998,-18.487 -6.786,3.864 -4.953,13.927 -3.998,18.487 z"
     fill="#385928"
     id="path13"
     style="fill:#306550;fill-opacity:1" /><path
     d="m 68.637,19.228 c 0,0 4.815,-5.254 2.421,-12.862 -4.622,2.799 -3.166,9.726 -2.421,12.862 z"
     fill="#385928"
     id="path14"
     style="fill:#306550;fill-opacity:1" /><path
     d="m 76.254,13.711 c 0,0 4.66,-2.669 4.682,-8.681 -3.959,0.953 -4.5,6.259 -4.682,8.681 z"
     fill="#385928"
     id="path15"
     style="fill:#306550;fill-opacity:1" /><text
     xml:space="preserve"
     transform="matrix(0.1,0,0,0.1,-2.230301,1.9599615)"
     id="text1"
     style="font-size:112px;font-family:'Noto Serif';-inkscape-font-specification:'Noto Serif';text-align:start;writing-mode:lr-tb;direction:ltr;white-space:pre;shape-inside:url(#rect1);fill:#c32626"><tspan
       x="483.9082"
       y="582.43532"
       id="tspan3"><tspan
         style="fill:#000000"
         id="tspan2">Scription</tspan></tspan></text></svg>
