<?xml version="1.0" encoding="UTF-8" standalone="no"?>
<svg
   version="1.1"
   x="0px"
   y="0px"
   viewBox="0 0 100 100"
   enable-background="new 0 0 100 100"
   xml:space="preserve"
   id="svg15"
   sodipodi:docname="logo_circled.svg"
   width="1000"
   height="1000"
   inkscape:export-filename="logo-nb-750.png"
   inkscape:export-xdpi="1111.11"
   inkscape:export-ydpi="1111.11"
   inkscape:version="1.4 (e7c3feb100, 2024-10-09)"
   xmlns:inkscape="http://www.inkscape.org/namespaces/inkscape"
   xmlns:sodipodi="http://sodipodi.sourceforge.net/DTD/sodipodi-0.dtd"
   xmlns="http://www.w3.org/2000/svg"
   xmlns:svg="http://www.w3.org/2000/svg"><defs
     id="defs15" /><sodipodi:namedview
     id="namedview15"
     pagecolor="#ffffff"
     bordercolor="#000000"
     borderopacity="0.25"
     inkscape:showpageshadow="2"
     inkscape:pageopacity="0.0"
     inkscape:pagecheckerboard="0"
     inkscape:deskcolor="#d1d1d1"
     inkscape:zoom="1.4796209"
     inkscape:cx="507.22451"
     inkscape:cy="393.34399"
     inkscape:window-width="3840"
     inkscape:window-height="2123"
     inkscape:window-x="0"
     inkscape:window-y="0"
     inkscape:window-maximized="1"
     inkscape:current-layer="svg15" /><circle
     style="fill:#d4bb7e;fill-opacity:1;stroke-width:0.1"
     id="path16"
     cx="50.14798"
     cy="50.01281"
     r="50" /><path
     d="m 15,81.178 c 0,0 0.778555,2.118669 3.671889,3.822 C 23.846445,79.039111 55.088222,28.835889 85,16.497222 V 15 c 0,0 -32.663555,11.083332 -70,66.178 z"
     fill="#26130f"
     id="path1"
     style="fill:#000000;fill-opacity:1;stroke-width:0.777777"
     inkscape:label="path1" /><path
     d="m 25.374,77.061222 c 0,0 9.936111,-6.09389 21.405222,0.124446 C 40.844,83.734554 30.175223,79.238222 25.374,77.061222 Z"
     fill="#385928"
     id="path2"
     style="fill:#306550;fill-opacity:1;stroke-width:0.777777" /><path
     d="m 43.544445,54.147111 c 0,0 8.174444,-5.013556 17.610444,0.102662 -4.883667,5.387667 -13.660112,1.688555 -17.610444,-0.102662 z"
     fill="#385928"
     id="path3"
     style="fill:#306550;fill-opacity:1;stroke-width:0.777777" /><path
     d="m 34.484111,66.167666 c 0,0 8.928889,-5.476334 19.235221,0.112 -5.333221,5.884666 -14.92011,1.844889 -19.235221,-0.112 z"
     fill="#385928"
     id="path4"
     style="fill:#306550;fill-opacity:1;stroke-width:0.777777" /><path
     d="m 51.825445,43.660334 c 0,0 7.075444,-4.339223 15.24211,0.08866 -4.226444,4.662777 -11.823777,1.460666 -15.24211,-0.08866 z"
     fill="#385928"
     id="path5"
     style="fill:#306550;fill-opacity:1;stroke-width:0.777777" /><path
     d="m 60.224666,36.668111 c 0,0 6.062,-3.717779 13.058111,0.07623 -3.621332,3.994666 -10.129,1.252221 -13.058111,-0.07623 z"
     fill="#385928"
     id="path6"
     style="fill:#306550;fill-opacity:1;stroke-width:0.777777" /><path
     d="m 67.080777,29.771555 c 0,0 4.866557,-2.98511 10.482889,0.06066 -2.906555,3.206776 -8.132444,1.004887 -10.482889,-0.06066 z"
     fill="#385928"
     id="path7"
     style="fill:#306550;fill-opacity:1;stroke-width:0.777777" /><path
     d="m 73.403334,24.155223 c 0,0 3.849221,-2.360557 8.291889,0.04822 C 79.395334,26.739 75.263,24.997555 73.403334,24.155223 Z"
     fill="#385928"
     id="path8"
     style="fill:#306550;fill-opacity:1;stroke-width:0.777777" /><path
     d="m 18.955777,71.587222 c 0,0 5.777334,-10.123556 -0.799555,-21.389667 -6.358333,6.138222 -1.526777,16.659222 0.799555,21.389667 z"
     fill="#385928"
     id="path9"
     style="fill:#306550;fill-opacity:1;stroke-width:0.777777" /><path
     d="m 26.711777,60.785445 c 0,0 5.542445,-7.887445 1.001001,-17.673445 -5.712001,4.561666 -2.549556,13.597889 -1.001001,17.673445 z"
     fill="#385928"
     id="path10"
     style="fill:#306550;fill-opacity:1;stroke-width:0.777777" /><path
     d="m 35.912889,50.307223 c 0,0 6.23,-7.356223 2.588443,-17.511668 -6.098554,4.028113 -3.763664,13.312445 -2.588443,17.511668 z"
     fill="#385928"
     id="path11"
     style="fill:#306550;fill-opacity:1;stroke-width:0.777777" /><path
     d="m 46.508555,40.136222 c 0,0 4.65189,-6.521667 0.937223,-14.681333 -4.773223,3.755889 -2.199555,11.284779 -0.937223,14.681333 z"
     fill="#385928"
     id="path12"
     style="fill:#306550;fill-opacity:1;stroke-width:0.777777" /><path
     d="m 55.044668,32.643889 c 0,0 5.569666,-5.757112 3.109555,-14.378778 -5.278,3.005334 -3.852334,10.832111 -3.109555,14.378778 z"
     fill="#385928"
     id="path13"
     style="fill:#306550;fill-opacity:1;stroke-width:0.777777" /><path
     d="m 64.495445,26.066222 c 0,0 3.745,-4.086445 1.883,-10.003777 -3.59489,2.177 -2.462445,7.564666 -1.883,10.003777 z"
     fill="#385928"
     id="path14"
     style="fill:#306550;fill-opacity:1;stroke-width:0.777777" /><path
     d="m 70.419777,21.775222 c 0,0 3.624445,-2.07589 3.641555,-6.751888 -3.079221,0.741221 -3.5,4.868111 -3.641555,6.751888 z"
     fill="#385928"
     id="path15"
     style="fill:#306550;fill-opacity:1;stroke-width:0.777777" /></svg>
